<svg width="1607" height="761" viewBox="0 0 1607 761" fill="none" xmlns="http://www.w3.org/2000/svg">
<g clip-path="url(#clip0_1516_2727)">
<rect width="1607" height="761" fill="white"/>
<path fill-rule="evenodd" clip-rule="evenodd" d="M208.971 110.664C205.871 109.231 202.383 111.69 202.691 115.091L209.749 192.886C210.057 196.287 213.932 198.079 216.723 196.111L280.566 151.102C283.357 149.134 282.972 144.883 279.872 143.45L208.971 110.664ZM216.222 123.737C214.12 122.765 211.754 124.433 211.964 126.739L216.749 179.491C216.958 181.797 219.586 183.011 221.478 181.677L264.77 151.157C266.662 149.823 266.401 146.94 264.299 145.968L216.222 123.737Z" fill="#29B9E7"/>
<path d="M102.819 442.615L99.9419 393.423L130.57 430.198L125.921 381.799L155.959 418.837L155.444 368.589L185.481 405.628L179.652 357.757L212.641 393.475L206.812 345.605L240.392 381.058" stroke="#FFC145" stroke-width="2"/>
<circle cx="273.5" cy="539.5" r="10.5" fill="#05756E"/>
<circle cx="1367.5" cy="185.5" r="19.5" fill="#F87141"/>
<circle cx="516.5" cy="155.5" r="10.5" fill="#05756E"/>
<path fill-rule="evenodd" clip-rule="evenodd" d="M1522.5 216.012C1584.57 207.257 1654.2 190.691 1702.84 230.229C1753.87 271.703 1763.31 344.834 1761.88 410.575C1760.48 474.697 1749.61 549.358 1695.14 583.214C1643.84 615.093 1582.42 566.89 1522.5 559.35C1476.13 553.515 1424.01 574.94 1388.45 544.621C1351.53 513.142 1348.32 459.091 1348.01 410.575C1347.7 361.655 1354.07 311.233 1386.73 274.812C1420.96 236.645 1471.73 223.172 1522.5 216.012Z" fill="#FFCB05"/>
</g>
<defs>
<clipPath id="clip0_1516_2727">
<rect width="1607" height="761" fill="white"/>
</clipPath>
</defs>
</svg>
