<svg width="1618" height="749" viewBox="0 0 1618 749" fill="none" xmlns="http://www.w3.org/2000/svg">
<rect width="1618" height="749" fill="white"/>
<path d="M325.5 227C325.5 254.614 303.114 277 275.5 277C247.886 277 225.5 254.614 225.5 227C225.5 199.386 247.886 177 275.5 177C303.114 177 325.5 199.386 325.5 227Z" fill="#5D5EC7"/>
<circle cx="209.5" cy="151.5" r="10.5" fill="#29B9E7"/>
<path fill-rule="evenodd" clip-rule="evenodd" d="M1387 617C1396.39 617 1404 609.165 1404 599.5C1404 589.835 1396.39 582 1387 582C1377.61 582 1370 589.835 1370 599.5C1370 609.165 1377.61 617 1387 617ZM1386.83 612.45C1393.87 612.45 1399.58 606.574 1399.58 599.325C1399.58 592.076 1393.87 586.2 1386.83 586.2C1379.79 586.2 1374.08 592.076 1374.08 599.325C1374.08 606.574 1379.79 612.45 1386.83 612.45Z" fill="#008000"/>
<path fill-rule="evenodd" clip-rule="evenodd" d="M1244 152C1253.94 152 1262 141.926 1262 129.5C1262 117.074 1253.94 107 1244 107C1234.06 107 1226 117.074 1226 129.5C1226 141.926 1234.06 152 1244 152ZM1243.82 146.15C1251.28 146.15 1257.32 138.595 1257.32 129.275C1257.32 119.955 1251.28 112.4 1243.82 112.4C1236.36 112.4 1230.32 119.955 1230.32 129.275C1230.32 138.595 1236.36 146.15 1243.82 146.15Z" fill="#FFC0CB"/>
<path d="M210.745 629.115L216.737 609.453L232.195 619.517L236.818 600.468L251.82 610.736L259.638 590.257L274.64 600.525L278.35 581.884L295.634 591.131L299.344 572.49L317.085 581.533" stroke="#FFC145" stroke-width="2"/>
</svg>
