<svg width="1440" height="590" viewBox="0 0 1440 590" fill="none" xmlns="http://www.w3.org/2000/svg">
<rect width="1440" height="590" fill="#FFEEE8"/>
<path fill-rule="evenodd" clip-rule="evenodd" d="M1273 245C1300.61 245 1323 222.614 1323 195C1323 167.386 1300.61 145 1273 145C1245.39 145 1223 167.386 1223 195C1223 222.614 1245.39 245 1273 245ZM1272.5 232C1293.21 232 1310 215.211 1310 194.5C1310 173.789 1293.21 157 1272.5 157C1251.79 157 1235 173.789 1235 194.5C1235 215.211 1251.79 232 1272.5 232Z" fill="#5D5EC7"/>
<path fill-rule="evenodd" clip-rule="evenodd" d="M715.971 56.664C712.871 55.2307 709.383 57.6903 709.691 61.0912L716.749 138.886C717.057 142.287 720.932 144.079 723.723 142.111L787.566 97.1016C790.357 95.134 789.972 90.8829 786.872 89.4496L715.971 56.664ZM723.222 69.737C721.12 68.7651 718.754 70.4329 718.964 72.739L723.749 125.491C723.958 127.797 726.586 129.011 728.478 127.677L771.77 97.157C773.662 95.8228 773.401 92.9402 771.299 91.9684L723.222 69.737Z" fill="#29B9E7"/>
<path fill-rule="evenodd" clip-rule="evenodd" d="M582 417C578.686 417 576 419.686 576 423V511C576 514.314 578.686 517 582 517H670C673.314 517 676 514.314 676 511V423C676 419.686 673.314 417 670 417H582ZM592.704 428C589.554 428 587 430.554 587 433.704V499.296C587 502.446 589.554 505 592.704 505H658.296C661.446 505 664 502.446 664 499.296V433.704C664 430.554 661.446 428 658.296 428H592.704Z" fill="#FD7342"/>
<path d="M941 487.5C941 493.299 936.299 498 930.5 498C924.701 498 920 493.299 920 487.5C920 481.701 924.701 477 930.5 477C936.299 477 941 481.701 941 487.5Z" fill="#05756E"/>
<path d="M1102 90.5C1102 96.299 1097.3 101 1091.5 101C1085.7 101 1081 96.299 1081 90.5C1081 84.701 1085.7 80 1091.5 80C1097.3 80 1102 84.701 1102 90.5Z" fill="#05756E"/>
</svg>
