<svg width="1612" height="718" viewBox="0 0 1612 718" fill="none" xmlns="http://www.w3.org/2000/svg">
<g clip-path="url(#clip0_1506_2727)">
<path d="M0 0H1613V718H0V0Z" fill="white"/>
<circle cx="99" cy="169" r="224" fill="#29B9E7"/>
<path fill-rule="evenodd" clip-rule="evenodd" d="M1483.26 146.03C1545.34 137.276 1614.96 120.709 1663.61 160.248C1714.64 201.722 1724.08 274.852 1722.64 340.593C1721.24 404.716 1710.38 479.376 1655.9 513.232C1604.61 545.111 1543.18 496.908 1483.26 489.368C1436.9 483.534 1384.77 504.958 1349.22 474.639C1312.3 443.16 1309.08 389.11 1308.78 340.593C1308.47 291.673 1314.84 241.251 1347.5 204.831C1381.73 166.664 1432.5 153.19 1483.26 146.03Z" fill="#05756E"/>
</g>
<defs>
<clipPath id="clip0_1506_2727">
<rect width="1613" height="718" fill="white"/>
</clipPath>
</defs>
</svg>
