<svg width="1621" height="807" viewBox="0 0 1621 807" fill="none" xmlns="http://www.w3.org/2000/svg">
<g clip-path="url(#clip0_1572_2921)">
<rect width="1621" height="807" fill="white"/>
<path fill-rule="evenodd" clip-rule="evenodd" d="M1522.5 256.012C1584.57 247.257 1654.2 230.691 1702.84 270.229C1753.87 311.703 1763.31 384.834 1761.88 450.575C1760.48 514.697 1749.61 589.358 1695.14 623.214C1643.84 655.093 1582.42 606.89 1522.5 599.35C1476.13 593.515 1424.01 614.94 1388.45 584.621C1351.53 553.142 1348.32 499.091 1348.01 450.575C1347.7 401.655 1354.07 351.233 1386.73 314.812C1420.96 276.645 1471.73 263.172 1522.5 256.012Z" fill="#05756E"/>
<path fill-rule="evenodd" clip-rule="evenodd" d="M77.4968 136.012C139.57 127.257 209.196 110.691 257.842 150.229C308.87 191.703 318.31 264.834 316.875 330.575C315.475 394.697 304.61 469.358 250.136 503.214C198.843 535.093 137.416 486.89 77.4968 479.35C31.1329 473.515 -20.9909 494.94 -56.5495 464.621C-93.4688 433.142 -96.6808 379.091 -96.9894 330.575C-97.3005 281.655 -90.9274 231.233 -58.2653 194.812C-24.0364 156.645 26.7317 143.172 77.4968 136.012Z" fill="#29B9E7"/>
</g>
<defs>
<clipPath id="clip0_1572_2921">
<rect width="1621" height="807" fill="white"/>
</clipPath>
</defs>
</svg>
