<svg width="106" height="106" viewBox="0 0 106 106" fill="none" xmlns="http://www.w3.org/2000/svg">
<g filter="url(#filter0_d_0_11825)">
<circle cx="53.0014" cy="47.3198" r="29.3197" fill="#5B72EE"/>
</g>
<g clip-path="url(#clip0_0_11825)">
<path d="M58.1324 47.3196H48.4569V50.6914H58.1324V47.3196ZM62.6174 39.3643L57.6839 34.2013C57.4571 33.9642 57.1497 33.8325 56.8272 33.8325H56.5198V40.5761H62.9702V40.2547C62.9702 39.9228 62.8442 39.6014 62.6174 39.3643ZM54.9072 40.9975V33.8325H44.8286C44.1583 33.8325 43.6191 34.3962 43.6191 35.0969V59.5423C43.6191 60.243 44.1583 60.8067 44.8286 60.8067H61.7607C62.431 60.8067 62.9702 60.243 62.9702 59.5423V42.2619H56.1167C55.4515 42.2619 54.9072 41.693 54.9072 40.9975ZM46.8443 37.6258C46.8443 37.3929 47.0247 37.2043 47.2475 37.2043H51.2789C51.5017 37.2043 51.6821 37.3929 51.6821 37.6258V38.4687C51.6821 38.7016 51.5017 38.8902 51.2789 38.8902H47.2475C47.0247 38.8902 46.8443 38.7016 46.8443 38.4687V37.6258ZM46.8443 40.9975C46.8443 40.7647 47.0247 40.5761 47.2475 40.5761H51.2789C51.5017 40.5761 51.6821 40.7647 51.6821 40.9975V41.8405C51.6821 42.0733 51.5017 42.2619 51.2789 42.2619H47.2475C47.0247 42.2619 46.8443 42.0733 46.8443 41.8405V40.9975ZM59.745 57.0134C59.745 57.2463 59.5646 57.4349 59.3418 57.4349H55.3104C55.0876 57.4349 54.9072 57.2463 54.9072 57.0134V56.1705C54.9072 55.9376 55.0876 55.749 55.3104 55.749H59.3418C59.5646 55.749 59.745 55.9376 59.745 56.1705V57.0134ZM59.745 46.4767V51.5343C59.745 52 59.3842 52.3772 58.9387 52.3772H47.6506C47.2051 52.3772 46.8443 52 46.8443 51.5343V46.4767C46.8443 46.0109 47.2051 45.6337 47.6506 45.6337H58.9387C59.3842 45.6337 59.745 46.0109 59.745 46.4767Z" fill="white"/>
</g>
<defs>
<filter id="filter0_d_0_11825" x="0.225859" y="0.408286" width="105.55" height="105.551" filterUnits="userSpaceOnUse" color-interpolation-filters="sRGB">
<feFlood flood-opacity="0" result="BackgroundImageFix"/>
<feColorMatrix in="SourceAlpha" type="matrix" values="0 0 0 0 0 0 0 0 0 0 0 0 0 0 0 0 0 0 127 0" result="hardAlpha"/>
<feOffset dy="5.86395"/>
<feGaussianBlur stdDeviation="11.7279"/>
<feColorMatrix type="matrix" values="0 0 0 0 0.212 0 0 0 0 0.238778 0 0 0 0 0.533333 0 0 0 0.06 0"/>
<feBlend mode="normal" in2="BackgroundImageFix" result="effect1_dropShadow_0_11825"/>
<feBlend mode="normal" in="SourceGraphic" in2="effect1_dropShadow_0_11825" result="shape"/>
</filter>
<clipPath id="clip0_0_11825">
<rect width="19.351" height="26.9741" fill="white" transform="translate(43.6191 33.8325)"/>
</clipPath>
</defs>
</svg>
