<svg width="39" height="40" viewBox="0 0 39 40" fill="none" xmlns="http://www.w3.org/2000/svg">
<circle opacity="0.3" cx="19.4535" cy="19.8539" r="19.2231" fill="#EBBE79"/>
<path d="M19.4029 21.3345C16.0869 21.3345 13.2891 21.8763 13.2891 23.9675C13.2891 26.0596 16.105 26.5824 19.4029 26.5824C22.7189 26.5824 25.5167 26.0406 25.5167 23.9494C25.5167 21.8573 22.7008 21.3345 19.4029 21.3345Z" fill="#FAA61A"/>
<path opacity="0.4" d="M19.4032 19.3422C21.6486 19.3422 23.449 17.5314 23.449 15.2732C23.449 13.014 21.6486 11.2041 19.4032 11.2041C17.1578 11.2041 15.3574 13.014 15.3574 15.2732C15.3574 17.5314 17.1578 19.3422 19.4032 19.3422Z" fill="#FAA61A"/>
<path opacity="0.4" d="M28.1881 16.2207C28.769 13.9356 27.0658 11.8833 24.8971 11.8833C24.6613 11.8833 24.4358 11.9093 24.2155 11.9534C24.1862 11.9603 24.1535 11.9751 24.1363 12.001C24.1165 12.0339 24.1311 12.0781 24.1526 12.1066C24.8041 13.0259 25.1785 14.145 25.1785 15.3465C25.1785 16.4977 24.8351 17.571 24.2327 18.4617C24.1707 18.5534 24.2258 18.6772 24.3351 18.6962C24.4866 18.7231 24.6415 18.7369 24.7998 18.7412C26.3791 18.7828 27.7965 17.7605 28.1881 16.2207Z" fill="#FAA61A"/>
<path d="M29.8416 21.6009C29.5524 20.9811 28.8544 20.5562 27.7933 20.3475C27.2924 20.2246 25.9369 20.0515 24.6761 20.0749C24.6572 20.0775 24.6469 20.0905 24.6451 20.0991C24.6425 20.1112 24.6477 20.132 24.6727 20.145C25.2553 20.435 27.5076 21.6961 27.2244 24.356C27.2124 24.4711 27.3044 24.5707 27.4189 24.5534C27.9731 24.4737 29.3992 24.1656 29.8416 23.2057C30.086 22.6984 30.086 22.109 29.8416 21.6009Z" fill="#FAA61A"/>
<path opacity="0.4" d="M14.6885 11.9539C14.469 11.9089 14.2427 11.8838 14.0069 11.8838C11.8381 11.8838 10.135 13.9361 10.7167 16.2212C11.1075 17.761 12.5249 18.7833 14.1041 18.7417C14.2625 18.7374 14.4183 18.7227 14.5689 18.6967C14.6782 18.6777 14.7332 18.5539 14.6713 18.4621C14.0688 17.5706 13.7255 16.4982 13.7255 15.3469C13.7255 14.1447 14.1007 13.0255 14.7522 12.1071C14.7728 12.0785 14.7883 12.0344 14.7677 12.0015C14.7505 11.9747 14.7186 11.9608 14.6885 11.9539Z" fill="#FAA61A"/>
<path d="M11.1103 20.3473C10.0491 20.5559 9.35203 20.9809 9.06286 21.6007C8.81759 22.1088 8.81759 22.6982 9.06286 23.2063C9.50522 24.1654 10.9313 24.4744 11.4855 24.5531C11.6 24.5705 11.6912 24.4718 11.6791 24.3558C11.396 21.6968 13.6482 20.4356 14.2317 20.1456C14.2558 20.1318 14.261 20.1119 14.2584 20.0989C14.2567 20.0903 14.2472 20.0773 14.2283 20.0755C12.9666 20.0513 11.612 20.2244 11.1103 20.3473Z" fill="#FAA61A"/>
</svg>
