<svg width="24" height="25" viewBox="0 0 24 25" fill="none" xmlns="http://www.w3.org/2000/svg">
<path d="M13.0286 2.35938C14.1536 2.36238 14.7246 2.36838 15.2176 2.38238L15.4116 2.38937C15.6356 2.39737 15.8566 2.40737 16.1236 2.41937C17.1876 2.46937 17.9136 2.63738 18.5506 2.88438C19.2106 3.13838 19.7666 3.48237 20.3226 4.03737C20.8311 4.53727 21.2245 5.14196 21.4756 5.80937C21.7226 6.44637 21.8906 7.17237 21.9406 8.23737C21.9526 8.50337 21.9626 8.72438 21.9706 8.94938L21.9766 9.14338C21.9916 9.63538 21.9976 10.2064 21.9996 11.3314L22.0006 12.0774V13.3874C22.003 14.1168 21.9954 14.8462 21.9776 15.5754L21.9716 15.7694C21.9636 15.9944 21.9536 16.2154 21.9416 16.4814C21.8916 17.5464 21.7216 18.2714 21.4756 18.9094C21.2253 19.5772 20.8317 20.182 20.3226 20.6814C19.8225 21.1897 19.2179 21.5831 18.5506 21.8344C17.9136 22.0814 17.1876 22.2494 16.1236 22.2994C15.8863 22.3105 15.649 22.3205 15.4116 22.3294L15.2176 22.3354C14.7246 22.3494 14.1536 22.3564 13.0286 22.3584L12.2826 22.3594H10.9736C10.2438 22.3619 9.5141 22.3542 8.78458 22.3364L8.59058 22.3304C8.35319 22.3214 8.11585 22.3111 7.87858 22.2994C6.81458 22.2494 6.08858 22.0814 5.45058 21.8344C4.78325 21.5837 4.17879 21.1902 3.67958 20.6814C3.17062 20.1817 2.7768 19.5769 2.52558 18.9094C2.27858 18.2724 2.11058 17.5464 2.06058 16.4814C2.04944 16.2441 2.03944 16.0068 2.03058 15.7694L2.02558 15.5754C2.00715 14.8462 1.99881 14.1168 2.00058 13.3874V11.3314C1.99779 10.602 2.00512 9.87257 2.02258 9.14338L2.02958 8.94938C2.03758 8.72438 2.04758 8.50337 2.05958 8.23737C2.10958 7.17237 2.27758 6.44737 2.52458 5.80937C2.77569 5.14128 3.1703 4.5364 3.68058 4.03737C4.17967 3.52885 4.78372 3.13536 5.45058 2.88438C6.08858 2.63738 6.81358 2.46937 7.87858 2.41937C8.14458 2.40737 8.36658 2.39737 8.59058 2.38937L8.78458 2.38337C9.51377 2.36561 10.2432 2.35794 10.9726 2.36037L13.0286 2.35938ZM12.0006 7.35938C10.6745 7.35938 9.40273 7.88616 8.46504 8.82384C7.52736 9.76152 7.00058 11.0333 7.00058 12.3594C7.00058 13.6855 7.52736 14.9572 8.46504 15.8949C9.40273 16.8326 10.6745 17.3594 12.0006 17.3594C13.3267 17.3594 14.5984 16.8326 15.5361 15.8949C16.4738 14.9572 17.0006 13.6855 17.0006 12.3594C17.0006 11.0333 16.4738 9.76152 15.5361 8.82384C14.5984 7.88616 13.3267 7.35938 12.0006 7.35938ZM12.0006 9.35938C12.3945 9.35931 12.7847 9.43684 13.1487 9.58755C13.5127 9.73825 13.8434 9.95917 14.122 10.2377C14.4007 10.5162 14.6217 10.8469 14.7725 11.2109C14.9233 11.5748 15.001 11.9649 15.0011 12.3589C15.0011 12.7528 14.9236 13.143 14.7729 13.507C14.6222 13.871 14.4013 14.2017 14.1228 14.4803C13.8442 14.759 13.5135 14.98 13.1496 15.1308C12.7856 15.2816 12.3955 15.3593 12.0016 15.3594C11.2059 15.3594 10.4429 15.0433 9.88026 14.4807C9.31765 13.9181 9.00158 13.155 9.00158 12.3594C9.00158 11.5637 9.31765 10.8007 9.88026 10.2381C10.4429 9.67545 11.2059 9.35938 12.0016 9.35938M17.2516 5.85938C16.9201 5.85938 16.6021 5.99107 16.3677 6.22549C16.1333 6.45991 16.0016 6.77785 16.0016 7.10938C16.0016 7.4409 16.1333 7.75884 16.3677 7.99326C16.6021 8.22768 16.9201 8.35938 17.2516 8.35938C17.5831 8.35938 17.901 8.22768 18.1355 7.99326C18.3699 7.75884 18.5016 7.4409 18.5016 7.10938C18.5016 6.77785 18.3699 6.45991 18.1355 6.22549C17.901 5.99107 17.5831 5.85938 17.2516 5.85938Z" fill="white"/>
</svg>
