<svg width="31" height="30" viewBox="0 0 31 30" fill="none" xmlns="http://www.w3.org/2000/svg">
<circle cx="15.459" cy="15" r="15" fill="white"/>
<path d="M18.4732 12.1987C19.6099 12.1987 20.6999 12.6503 21.5037 13.454C22.3074 14.2577 22.7589 15.3478 22.7589 16.4844V21.4844H19.9018V16.4844C19.9018 16.1056 19.7513 15.7422 19.4834 15.4743C19.2155 15.2064 18.8521 15.0559 18.4732 15.0559C18.0943 15.0559 17.731 15.2064 17.4631 15.4743C17.1952 15.7422 17.0446 16.1056 17.0446 16.4844V21.4844H14.1875V16.4844C14.1875 15.3478 14.639 14.2577 15.4428 13.454C16.2465 12.6503 17.3366 12.1987 18.4732 12.1987V12.1987Z" fill="#00433F"/>
<path d="M11.3298 12.9131H8.47266V21.4845H11.3298V12.9131Z" fill="#00433F"/>
<path d="M9.90123 10.7702C10.6902 10.7702 11.3298 10.1306 11.3298 9.34166C11.3298 8.55268 10.6902 7.91309 9.90123 7.91309C9.11225 7.91309 8.47266 8.55268 8.47266 9.34166C8.47266 10.1306 9.11225 10.7702 9.90123 10.7702Z" fill="#00433F"/>
</svg>
