<svg width="49" height="50" viewBox="0 0 49 50" fill="none" xmlns="http://www.w3.org/2000/svg">
<circle opacity="0.3" cx="24.5" cy="25" r="24.5" fill="#EBBE79"/>
<g clip-path="url(#clip0_0_11588)">
<path d="M29.5133 25.4871H19.8378V28.8588H29.5133V25.4871ZM33.9983 17.5318L29.0648 12.3688C28.838 12.1317 28.5306 12 28.2081 12H27.9007V18.7435H34.351V18.4222C34.351 18.0903 34.225 17.7689 33.9983 17.5318ZM26.2881 19.165V12H16.2094C15.5392 12 15 12.5637 15 13.2644V37.7097C15 38.4104 15.5392 38.9741 16.2094 38.9741H33.1416C33.8118 38.9741 34.351 38.4104 34.351 37.7097V20.4294H27.4975C26.8323 20.4294 26.2881 19.8604 26.2881 19.165ZM18.2252 15.7932C18.2252 15.5604 18.4056 15.3718 18.6283 15.3718H22.6598C22.8825 15.3718 23.0629 15.5604 23.0629 15.7932V16.6362C23.0629 16.869 22.8825 17.0577 22.6598 17.0577H18.6283C18.4056 17.0577 18.2252 16.869 18.2252 16.6362V15.7932ZM18.2252 19.165C18.2252 18.9321 18.4056 18.7435 18.6283 18.7435H22.6598C22.8825 18.7435 23.0629 18.9321 23.0629 19.165V20.0079C23.0629 20.2408 22.8825 20.4294 22.6598 20.4294H18.6283C18.4056 20.4294 18.2252 20.2408 18.2252 20.0079V19.165ZM31.1259 35.1809C31.1259 35.4138 30.9454 35.6024 30.7227 35.6024H26.6912C26.4685 35.6024 26.2881 35.4138 26.2881 35.1809V34.338C26.2881 34.1051 26.4685 33.9165 26.6912 33.9165H30.7227C30.9454 33.9165 31.1259 34.1051 31.1259 34.338V35.1809ZM31.1259 24.6441V29.7018C31.1259 30.1675 30.765 30.5447 30.3196 30.5447H19.0315C18.586 30.5447 18.2252 30.1675 18.2252 29.7018V24.6441C18.2252 24.1784 18.586 23.8012 19.0315 23.8012H30.3196C30.765 23.8012 31.1259 24.1784 31.1259 24.6441Z" fill="#FAA61A"/>
</g>
<defs>
<clipPath id="clip0_0_11588">
<rect width="19.351" height="26.9741" fill="white" transform="translate(15 12)"/>
</clipPath>
</defs>
</svg>
