<svg width="31" height="30" viewBox="0 0 31 30" fill="none" xmlns="http://www.w3.org/2000/svg">
<circle cx="15.5625" cy="15" r="15" fill="white"/>
<g clip-path="url(#clip0_0_12109)">
<path d="M23.2651 9.57847C22.5811 10.061 21.8237 10.43 21.0222 10.6713C20.592 10.1767 20.0203 9.82611 19.3844 9.66699C18.7484 9.50787 18.079 9.5479 17.4666 9.78165C16.8541 10.0154 16.3282 10.4316 15.9601 10.974C15.5919 11.5164 15.3991 12.1587 15.4079 12.8142V13.5285C14.1527 13.561 12.9088 13.2826 11.7872 12.7181C10.6656 12.1535 9.70101 11.3204 8.97935 10.2928C8.97935 10.2928 6.12221 16.7213 12.5508 19.5785C11.0797 20.577 9.32732 21.0777 7.55078 21.007C13.9794 24.5785 21.8365 21.007 21.8365 12.7928C21.8358 12.5938 21.8167 12.3953 21.7794 12.1999C22.5084 11.481 23.0228 10.5733 23.2651 9.57847V9.57847Z" fill="#00433F"/>
</g>
<defs>
<clipPath id="clip0_0_12109">
<rect width="17.1429" height="17.1429" fill="white" transform="translate(6.83594 7.43555)"/>
</clipPath>
</defs>
</svg>
