<svg width="172" height="161" viewBox="0 0 172 161" fill="none" xmlns="http://www.w3.org/2000/svg">
<g clip-path="url(#clip0_1197_2295)">
<rect width="172" height="161" fill="#FAA61A"/>
<path fill-rule="evenodd" clip-rule="evenodd" d="M15.6971 -53.0663C30.1314 -48.585 31.5702 -22.1424 41.6848 -7.66433C51.0729 5.77401 69.4938 8.92555 71.6868 27.0782C73.9618 45.9099 63.493 64.4738 51.6959 75.2045C41.3649 84.6017 28.1916 77.7941 15.6971 78.0068C2.89559 78.2247 -10.3903 85.5525 -21.2303 76.446C-34.1038 65.6313 -44.0036 47.3669 -44.9263 27.0782C-45.8894 5.90131 -37.2956 -13.7636 -26.0114 -28.6814C-14.7949 -43.5097 0.331443 -57.8367 15.6971 -53.0663Z" fill="#EBBE79"/>
<path fill-rule="evenodd" clip-rule="evenodd" d="M137.184 80.7465C148.407 74.1979 162.609 60.2491 170.99 80.7462C179.819 102.337 171.212 142.798 174.854 172.869C177.823 197.383 189.354 211.729 189.96 237.383C190.592 264.143 183.598 287.221 178.092 309.882C171.721 336.103 167.197 374.285 155.442 379.454C143.381 384.757 134.565 350.093 124.097 333.623C116.513 321.69 107.905 314.144 102.419 296.028C97.0755 278.381 96.66 255.112 93.8807 233.839C90.3601 206.894 79.8847 180.786 83.9044 154.317C87.8765 128.162 102.347 128.411 111.894 115.229C120.474 103.38 127.705 86.2772 137.184 80.7465Z" fill="#A8AFCC"/>
<path fill-rule="evenodd" clip-rule="evenodd" d="M140.761 -107.911C154.907 -106.417 161.598 -79.7846 172.15 -63.9047C183.868 -46.2691 204.508 -37.6421 204.991 -11.2445C205.473 15.1667 186.891 29.2475 174.135 44.7463C164.068 56.9772 153.125 64.6743 140.761 66.7943C126.508 69.238 108.992 75.9143 99.788 57.4934C90.6567 39.2176 100.776 12.5442 101.77 -11.2445C102.636 -31.9864 98.2084 -53.7589 105.154 -70.9794C113.284 -91.1344 126.283 -109.439 140.761 -107.911Z" fill="#447C8A"/>
<path fill-rule="evenodd" clip-rule="evenodd" d="M66.1616 166.744C65.9326 188.602 72.1687 209.711 66.1533 229.758C58.8381 254.136 47.041 282.094 31.2533 283.08C15.6608 284.053 10.9626 249.463 -0.970926 233.949C-12.8469 218.51 -33.4998 218.879 -37.2715 193.997C-41.1777 168.229 -31.0114 138.401 -18.1334 120.732C-6.9072 105.329 8.40309 117.545 22.2527 112.328C38.2502 106.301 55.0281 72.7992 67.6339 88.4215C80.1837 103.974 66.4457 139.62 66.1616 166.744Z" fill="#565799"/>
<rect width="172" height="161" fill="black" fill-opacity="0.2"/>
</g>
<defs>
<clipPath id="clip0_1197_2295">
<rect width="172" height="161" rx="12" fill="white"/>
</clipPath>
</defs>
</svg>
