<svg width="27" height="27" viewBox="0 0 27 27" fill="none" xmlns="http://www.w3.org/2000/svg">
<circle opacity="0.3" cx="13.5" cy="13.5" r="13.5" fill="#EBBE79"/>
<path d="M13.4636 14.5388C11.1348 14.5388 9.16992 14.9193 9.16992 16.388C9.16992 17.8572 11.1475 18.2244 13.4636 18.2244C15.7923 18.2244 17.7572 17.8438 17.7572 16.3752C17.7572 14.906 15.7796 14.5388 13.4636 14.5388Z" fill="#FAA61A"/>
<path opacity="0.4" d="M13.4624 13.1396C15.0392 13.1396 16.3036 11.8679 16.3036 10.2819C16.3036 8.69538 15.0392 7.42432 13.4624 7.42432C11.8855 7.42432 10.6211 8.69538 10.6211 10.2819C10.6211 11.8679 11.8855 13.1396 13.4624 13.1396Z" fill="#FAA61A"/>
<path opacity="0.4" d="M19.6314 10.9472C20.0393 9.3424 18.8432 7.90112 17.3201 7.90112C17.1545 7.90112 16.9962 7.91936 16.8415 7.95036C16.8209 7.95522 16.7979 7.96556 16.7859 7.98379C16.772 8.00689 16.7822 8.0379 16.7973 8.05795C17.2549 8.70352 17.5178 9.4895 17.5178 10.3332C17.5178 11.1417 17.2766 11.8955 16.8535 12.521C16.81 12.5854 16.8487 12.6723 16.9255 12.6857C17.0318 12.7046 17.1406 12.7143 17.2518 12.7173C18.3609 12.7465 19.3564 12.0286 19.6314 10.9472Z" fill="#FAA61A"/>
<path d="M20.7943 14.7258C20.5912 14.2905 20.1011 13.9921 19.3558 13.8456C19.0041 13.7593 18.0522 13.6377 17.1667 13.6541C17.1534 13.6559 17.1462 13.665 17.145 13.6711C17.1431 13.6796 17.1468 13.6942 17.1643 13.7033C17.5735 13.907 19.1552 14.7926 18.9563 16.6606C18.9479 16.7415 19.0125 16.8114 19.0929 16.7992C19.4822 16.7433 20.4836 16.5269 20.7943 15.8528C20.9659 15.4966 20.9659 15.0826 20.7943 14.7258Z" fill="#FAA61A"/>
<path opacity="0.4" d="M10.1534 7.95085C9.99925 7.91924 9.8403 7.90161 9.67469 7.90161C8.15161 7.90161 6.95551 9.34288 7.36408 10.9477C7.63848 12.0291 8.63392 12.747 9.74299 12.7178C9.8542 12.7148 9.96359 12.7044 10.0694 12.6862C10.1461 12.6728 10.1848 12.5859 10.1413 12.5215C9.71821 11.8954 9.47706 11.1422 9.47706 10.3337C9.47706 9.48938 9.74057 8.7034 10.1981 8.05844C10.2126 8.03838 10.2235 8.00738 10.209 7.98428C10.1969 7.96544 10.1745 7.95571 10.1534 7.95085Z" fill="#FAA61A"/>
<path d="M7.63932 13.8453C6.89409 13.9918 6.40453 14.2903 6.20146 14.7255C6.0292 15.0823 6.0292 15.4963 6.20146 15.8531C6.51212 16.5267 7.5136 16.7437 7.90283 16.799C7.98322 16.8111 8.04728 16.7418 8.03882 16.6604C7.83998 14.793 9.42168 13.9073 9.83146 13.7037C9.84839 13.694 9.85201 13.68 9.8502 13.6709C9.84899 13.6648 9.84234 13.6557 9.82905 13.6544C8.943 13.6374 7.99168 13.759 7.63932 13.8453Z" fill="#FAA61A"/>
</svg>
