<svg width="49" height="50" viewBox="0 0 49 50" fill="none" xmlns="http://www.w3.org/2000/svg">
<circle opacity="0.3" cx="24.5" cy="25" r="24.5" fill="#EBBE79"/>
<path d="M24.9355 16.7886H16.7689C16.15 16.7886 15.5565 17.0344 15.119 17.472C14.6814 17.9096 14.4355 18.5031 14.4355 19.1219V35.4552C14.4355 36.0741 14.6814 36.6676 15.119 37.1052C15.5565 37.5427 16.15 37.7886 16.7689 37.7886H33.1022C33.7211 37.7886 34.3145 37.5427 34.7521 37.1052C35.1897 36.6676 35.4355 36.0741 35.4355 35.4552V27.2886" stroke="#FAA61A" stroke-width="2" stroke-linecap="round" stroke-linejoin="round"/>
<path d="M33.6855 15.0388C34.1497 14.5747 34.7792 14.314 35.4355 14.314C36.0919 14.314 36.7214 14.5747 37.1855 15.0388C37.6497 15.503 37.9104 16.1325 37.9104 16.7888C37.9104 17.4452 37.6497 18.0747 37.1855 18.5388L26.1022 29.6222L21.4355 30.7888L22.6022 26.1222L33.6855 15.0388Z" stroke="#FAA61A" stroke-width="2" stroke-linecap="round" stroke-linejoin="round"/>
</svg>
